<svg width="203" height="32" viewBox="0 0 203 32" fill="none" xmlns="http://www.w3.org/2000/svg">
<g clip-path="url(#clip0_38_685)">
<path d="M57.4386 22.1745L64.3593 0.443726H70.78L59.9703 31.5571H54.5705L43.8006 0.443726H50.5454L57.4386 22.1745Z" fill="black"/>
<path d="M83.4651 0.443726H103.875V5.83982H89.6586V13.1816H101.527V18.5639H89.6586V26.161H103.875V31.5571H83.4651V0.443726Z" fill="black"/>
<path d="M118.156 0.443726H124.403V13.1549H137.165V0.443726H143.426V31.5571H137.165V18.5639H124.403V31.5571H118.156V0.443726Z" fill="black"/>
<path d="M190.903 26.4567C193.879 26.4567 196.234 25.3558 196.234 22.8591C196.234 16.4834 180.39 20.7649 180.39 9.53048C180.39 3.24848 185.303 0 191.321 0C195.224 0 199.157 1.38293 202.05 3.66473L199.33 7.86546C196.961 6.25457 194.067 5.40981 191.671 5.40981C188.79 5.40981 186.541 6.64413 186.541 9.04712C186.541 15.4099 202.521 10.8593 202.521 22.3765C202.521 28.8453 197.486 32 191.199 32C186.621 32 182.691 30.309 179.487 27.7048L182.247 23.3836C185.02 25.3963 187.996 26.4567 190.903 26.4567Z" fill="black"/>
<path d="M165.702 0.443726H159.44V31.5571H165.702V0.443726Z" fill="black"/>
<path d="M32.0941 0H0V31.9993H32.0941V0Z" fill="#473A4E"/>
<path d="M32.0946 4.25311C16.7497 4.25311 4.26573 16.7002 4.26573 31.9997H32.0953L32.0946 4.25311Z" fill="url(#paint0_linear_38_685)"/>
</g>
<defs>
<linearGradient id="paint0_linear_38_685" x1="36.1371" y1="8.01655" x2="8.79482" y2="36.1153" gradientUnits="userSpaceOnUse">
<stop stop-color="#DB1A21"/>
<stop offset="0.5277" stop-color="#5E0000"/>
<stop offset="1" stop-color="#483A4F"/>
</linearGradient>
<clipPath id="clip0_38_685">
<rect width="203" height="32" fill="white"/>
</clipPath>
</defs>
</svg>
